<svg id="Ebene_1" data-name="Ebene 1" xmlns="http://www.w3.org/2000/svg" viewBox="0 0 420.64 429.36"><defs><clipPath id="clippath"><path class="cls-2" d="M25.09 148.11h14.36v30.05H25.09z"/></clipPath><clipPath id="clippath-1"><path class="cls-2" d="M39.45 148.11h14.36v30.05H39.45z"/></clipPath><clipPath id="clippath-2"><path class="cls-2" d="M257.21 41.61h8.89v18.6h-8.89z"/></clipPath><clipPath id="clippath-3"><path class="cls-2" d="M266.1 41.61h8.89v18.6h-8.89z"/></clipPath><clipPath id="clippath-4"><path class="cls-2" d="M337.24 169.52h14.36v30.05h-14.36z"/></clipPath><clipPath id="clippath-5"><path class="cls-2" d="M351.61 169.52h14.36v30.05h-14.36z"/></clipPath><clipPath id="clippath-6"><path class="cls-2" d="M161.85 24.96h14.36v30.05h-14.36z"/></clipPath><clipPath id="clippath-7"><path class="cls-2" d="M176.21 24.96h14.36v30.05h-14.36z"/></clipPath><clipPath id="clippath-8"><path class="cls-2" d="M345.85 284.13h14.36v30.05h-14.36z"/></clipPath><clipPath id="clippath-9"><path class="cls-2" d="M360.21 284.13h14.36v30.05h-14.36z"/></clipPath><clipPath id="clippath-10"><path class="cls-2" d="M38.93 268.95h8.89v18.6h-8.89z"/></clipPath><clipPath id="clippath-11"><path class="cls-2" d="M47.82 268.95h8.89v18.6h-8.89z"/></clipPath><clipPath id="clippath-12"><path class="cls-2" d="M363.54 146.19h8.89v18.6h-8.89z"/></clipPath><clipPath id="clippath-13"><path class="cls-2" d="M372.43 146.19h8.89v18.6h-8.89z"/></clipPath><style>.cls-2{fill:none}.cls-2,.cls-3,.cls-4,.cls-5,.cls-6,.cls-7{stroke-width:0}.cls-3{fill:#a4cde1}.cls-4{fill:#fdfdfd}.cls-5{fill:#fed223}.cls-6{fill:#fff}.cls-7{fill:#e5a30d}</style></defs><circle cx="209.63" cy="214.97" r="204.44" style="stroke-width:0;fill:#03213c"/><path class="cls-3" d="M204.75 396.61c-35.75-2.95-77.33-12.45-117.49-36.51-4.21-2.52-8.26-5.12-12.16-7.77 2.86-3.95 7.54-5.63 10.99-8.84.88.47 2.19 1.17 3.77 2 4.77 2.5 14.11 7.41 21.72 10.59 5.54 2.32 13.68 5.21 24.45 7.29-.04.33-.05.66-.12.98-1.16 5.25-3.96 7.49-3.11 9.28.19.4.47.54 2.95 1.49 3.56 1.37 5.35 2.06 5.92 2.23 7.5 2.25 32.75 6.35 51.79 13.98 2.49 1 6.49 2.7 11.29 5.27Z"/><path class="cls-4" d="M80.42 165.09c-4.36 1.99-8.15 4.84-12 8.12 2.11-20.02 13.33-44.74 32.56-65.5 30.04-32.43 66.89-39.38 80.57-41.69 16.74-2.83 55.53-9.39 92.68 14.52 34.58 22.25 45.98 56.89 49 67.38-.66-.16-1.84.05-2.81-.67-22.47-16.75-48.24-20.44-75.17-18.38-37.95 2.9-70.88 17.15-97.53 44.84-5.94 6.17-6 6.24-12.04.56-7.28-6.84-16.12-10.45-25.65-12.69 1.51-13.61 6.3-26.1 13.31-37.73 5.69-9.45 12.96-17.66 21.27-24.92 1.42-1.24 2.99-2.54 2.11-4.58-.91-2.1-3.21-2.53-5.12-2.29-2.25.29-4.62.99-6.57 2.14-26.15 15.35-45.1 36.75-54.96 65.74-.61 1.8-1.05 3.51.36 5.14Z"/><path class="cls-5" d="M253.93 307.21c-16.04 1.87-32.05 1.74-48.01-.85-.47-.07-.95-.14-1.42-.22-.85-.17-1.7-.34-2.56-.51-2.25-1.34-4.38-2.93-6.76-3.97-15.64-6.87-23.77-19.96-28.03-35.45-4.73-17.19-4.08-34.76-.74-52.22 1.64-8.58 4.72-16.93 9.97-23.61 6.5-8.27 14.03-15.95 23.26-21.53 13.67-8.26 25.74-11.47 34.08-13.35 12.21-2.76 22.86-3.25 30.77-3.08.3.19.85.53 1.54.95 3.23 1.97 5.7 3.31 5.95 3.45 2.06 1.14 16.09 10.7 22.12 29.17 1.39 4.27 3.16 11.47 2.61 20.72-7.71-4.79-15.79-7.47-25.08-5.53-9.34 1.96-15.54 7.98-20.68 15.34-3.89 5.58-7.29 11.5-10.96 17.24-3.36 5.26-7.67 9.55-13.04 12.82-16.55 10.05-16.76 23.6-.56 34.05.55.36 1.06.79 1.59 1.19 1.68 5.53 5.4 9.58 9.85 12.93 5.42 4.08 9.11 10.41 16.1 12.46m-18.71-96.09c.02-11.26-8.92-20.37-20.1-20.49-11.73-.12-21.2 9.3-21.24 21.14-.04 11.06 9.58 20.66 20.72 20.68s20.61-9.77 20.63-21.33Z"/><path class="cls-4" d="M146.08 303.9c24.05 15 50.79 19.85 78.56 20.74 22.88.73 45.57-.66 67.92-6.01 5.69-1.36 11.25-3.04 16.57-5.44 5.14-2.33 10.1-5.05 15.74-8.93.08 2.08.27 6.81.5 13.02.3 8.18.42 12.34-1.2 15.32-1.99 3.67-5.33 5.49-7.64 6.68-24.5 12.67-47.72 13.51-47.72 13.51-18.66 1.87-43.59 2.2-48.01 2.4-.14 0-.83.04-1.77.07-1.23.04-2.25.05-2.94.06-3.41-4.36-6.09-7.93-7.93-10.43-2-2.71-2.44-3.35-3.57-4.29-3.11-2.57-7.01-3.61-11.33-4.02-2.63-.25-5.25-.69-7.86-1.09-23.26-3.53-45.56-10.24-66.84-20.27-3-1.41-8.3-2.9-7.53-5.82.79-3 6.16-2.8 9.8-2.85 6.98-.09 13.96-.03 20.94-.13 1.82-.03 4.31.73 4.32-2.53Z"/><path class="cls-3" d="M141.86 238.51c-2.3 12.22-5.99 23.75-16.59 31.56-4.12 3.03-8.46 5.76-13.87 5.81-.55-.36-1.1-1.02-1.65-1.02-8.32-.04-15.37-3.73-22.39-7.57-19.95-10.91-29.57-36.6-21.53-57.54 6.16-16.06 23.24-22.77 37.91-14.9 13.25 7.11 20.36 24.7 16.79 40.99-1.67 7.64-5.08 14.53-9.04 21.35 2.36.58 4.11.3 5.88-.3 7.59-2.61 13.81-7.09 18.8-13.39 1.56-1.97 2.38-4.96 5.7-4.98Zm8.68 68.03c-15.76.55-23.07.41-26.59.09-.14-.01-1.41-.13-3.14-.07-3.11.11-9.28.89-9.8 2.85-.77 2.92 4.53 4.4 7.53 5.82 21.28 10.03 43.58 16.74 66.84 20.27 2.62.4 5.24.72 7.86 1.09 9.86 1.36 10.56 1.45 11.45 1.75 3.06 1.01 8.01 4.3 11.39 16.99-11.06.07-22.06.28-33.14-.94-12.61-1.39-25.27-2.57-37.44-6.01-10.93-3.1-21.9-6.01-32.55-10.44-8.96-3.72-17.76-7.42-25.98-12.53-.63-11.17-1.5-22.34-.47-33.53 17.63 6.93 26.52 5.57 31.41 2.8 1.78-1.01 6.35-4.09 11.45-2.95.89.2 1.65.41 1.94.51 3.04 1.03 4.38 2.57 8.05 5.89 4.92 4.45 7.43 6.14 8.8 7 1 .63 1.85 1.12 2.4 1.42Z"/><path class="cls-5" d="M270.85 215.99c.29-.14.57-.29.86-.43 7.33 2.73 12.86 8.18 18.96 12.73 10.87 8.13 22.28 13.17 34.53 13.93 8.39.52 15.28-1.38 21.71-3.08a94.4 94.4 0 0 0 14.72-5.22c1.24-.18 4.79-.52 8.45 1.5 5.25 2.9 6.49 8.34 6.67 9.19l-16.83-3.88c-12 5.52-19.38 10.43-23.98 14-1.49 1.16-4.96 3.94-10.2 6.9-1.12.63-5.1 2.84-10.96 5.11-3.49 1.34-10.17 3.88-19.07 5.18-8.35 1.22-14.17.7-24.93-.27 0 0-15.3-1.38-23.36-6.06-.3-.17-.72-.48-2.04-1.29-1.68-1.03-2.14-1.24-2.25-1.7-.23-1.03 1.51-2.23 1.73-2.39 2.03-1.47 8.69-11.98 26-44.21Zm9.44 21.67c-5-.28-7.92.59-8.21 4.54-.25 3.31 3.47 5.51 8.43 5.56 3.69.04 6.68-1.9 6.42-5.21-.34-4.31-4.72-4.47-6.64-4.89"/><path class="cls-4" d="M141.86 238.51c-3.31.02-4.14 3.01-5.7 4.98-4.99 6.31-11.21 10.78-18.8 13.39-1.77.61-3.52.89-5.88.3 3.96-6.83 7.37-13.71 9.04-21.35 3.57-16.28-3.54-33.88-16.79-40.99-14.67-7.87-31.75-1.15-37.91 14.9-8.04 20.94 1.58 46.63 21.54 57.54 7.02 3.84 14.08 7.53 22.39 7.57.55 0 1.1.66 1.65 1.02-17.25 3.94-30.56-2.9-41.71-15.38-17.3-19.35-16.59-46.6-4.43-64.72 14.5-21.6 43.45-24.13 61.66-5.73 8.46 8.54 12.12 17.58 13.2 20.92 3.43 10.62 2.52 20.5 2.09 24.77a64 64 0 0 1-.34 2.77Z"/><path class="cls-7" d="M270.85 215.99s.04.07-.04.63c-.12.89-.26 1.66-.28 1.77-.43 1.83-18.71 35.33-25.68 41.8-2.3 2.14-1.31 3.03.89 4.27 7.87 4.44 16.86 5.83 25.33 6.66 21.15 2.08 31.88.13 43.7-4.39 9.41-3.6 16.48-8.34 21.17-12.01 1.24-.96 14.35-11.08 23.98-14 1.07-.33 4.64-1.34 9.01-.76.41.05 3.3.46 5.5 2.19 1.23.97 1.62 1.86 1.77 2.26.25.71.26 1.31.26 1.63 0 .28.02 2.95-1.51 3.95-1.57 1.02-3.48-.42-7.05-.15-1.73.13-3.09.61-3.91.95-2.16.89-5.38 2.3-9.14 4.32-7.44 3.99-12.15 7.74-14.9 9.75-8.82 6.45-17.32 9.79-24.32 12.08-19.03 6.21-39.05 5.83-59.77 1.07-8.1-1.86-16.19-3.86-23.14-8.85-5.67-4.08-5.79-6.91-.11-10.48 9.09-5.71 15.78-13.63 21.33-22.68 3.81-6.21 4.21-9.21 9.25-14.2 2.89-2.87 7.25-6.23 7.67-5.81Z"/><path class="cls-3" d="M80.42 165.09c-1.42-1.62-.97-3.34-.36-5.14 9.86-28.99 28.81-50.4 54.96-65.74 1.95-1.15 4.32-1.85 6.57-2.14 1.91-.24 4.21.19 5.12 2.29.89 2.04-.69 3.34-2.11 4.58-8.31 7.26-15.58 15.47-21.27 24.92-7.01 11.63-11.8 24.12-13.31 37.73-10.17-1.41-20.02-.07-29.61 3.5Z"/><path class="cls-4" d="M264.51 151.56c5.67.24 11.35.48 17.02.73 13.85 12 20.52 27.69 23.06 45.41.72 5.03 1.2 10.13.54 15.89a44 44 0 0 0-4.84-4.38 42 42 0 0 0-4.89-3.29c.8-9.65-1.08-16.75-2.58-20.92-6.48-17.97-23.71-29.66-25.86-30.68-1.2-.57-2.49-1.06-2.45-2.74Z"/><path class="cls-7" d="M253.93 307.21c-.74-.2-1.76-.53-2.91-1.09-.84-.41-2.1-1.12-4.52-3.24-2.06-1.81-2.27-2.25-4.81-4.66-.86-.82-1.92-1.78-3.44-3.07-3.73-3.17-4.49-3.18-6.2-5.21-2.45-2.9-3.53-6.01-4.06-8.12 9.78 5.89 18.36 8.31 24.73 9.38 12.86 2.16 26.98.57 27.33 2.93.05.36-.28.36-1.81 2.47-1.8 2.49-1.91 3.38-3.34 4.9-.79.84-1.65 1.57-2.59 2.27-6.83 5.02-17.51 3.56-18.38 3.43Z"/><path class="cls-4" d="M362.37 234.96c-1.79.13-2.64.45-7.92 2.01-2.51.74-5.07 1.33-7.55 2.17-20.85 7.05-39.21 1.89-56.24-10.85-6.09-4.56-11.63-10-18.96-12.73 5.62-3.33 11.29-3.69 16.7.27 5.33 3.9 10.19 8.47 15.71 12.07 11.88 7.75 24.73 10.01 38.53 5.63 5.37-1.71 10.8-3.4 16.33-4.36 5.43-.94 10.64-1.21 15.35 1.84 1.13.73 5.44 3.52 6.04 8.57.68 5.77-4.05 9.83-4.22 9.94-.3.2-.62.34-.62.34-.5.23-1.1.4-1.1.39 0 0 .19-.05.44-.19.19-.1.31-.21.35-.24.11-.1.22-.21.33-.36.4-.54.58-1.19.67-1.48.07-.23.1-.4.12-.51.02-.14.03-.24.06-.42.02-.14.04-.34.05-.6 0 0 .01-.28 0-.58 0-.17-.44-6.32-5.39-9.43-3.02-1.9-6.14-1.66-8.65-1.48Z"/><circle class="cls-6" cx="224.44" cy="205.82" r="5.35"/><path class="cls-7" d="M233.7 155.49c-6.96 1.48-19.73 4.68-34.08 13.35-9.23 5.58-16.76 13.26-23.26 21.53-5.25 6.67-8.33 15.03-9.97 23.61-3.34 17.46-3.98 35.03.74 52.22 4.26 15.5 12.4 28.58 28.03 35.45 2.38 1.04 4.51 2.64 6.76 3.97-1.49-.15-3.61-.41-6.14-.85-1.83-.32-7.93-1.46-16.66-4.68-7.12-2.63-12.17-5.24-16.89-7.7-19.41-10.11-19.51-14.09-19.42-15.17.11-1.28.77-2.18 1.06-2.56 17.03-22.58 20.32-47.2 9.78-73.43-.84-2.1-1.18-3.77-.89-5.35.1-.57.51-2.35 2.35-4.27 26-27.15 53.03-37.95 53.03-37.95s24.68-9.85 52.85-9.93c4.01-.01 8.73.45 13.55 2.96 4.04 2.1 6.71 4.88 8.22 6.71-1.93-.15-4.89-.35-8.51-.49-11.1-.43-24.59-.82-40.58 2.57Z"/><path class="cls-6" d="M196.83 395.43c-1.56-.34-4.1-1.04-9.17-2.45-13.69-3.8-24.67-7.44-32.01-10.01 0 0-11.2-2.66-21.43-7.99-1.94-1.01-2.24-1.91-2.29-2.42v-.25c.06-1.77.62-3.76.77-4.29.82-2.92.79-3.13 1.21-3.56.67-.69 1.53-.96 2.13-1.08 1.89.36 4.64.88 7.95 1.48 21.9 3.96 39.55 7.14 60.95 8.15 5.18.24 9.97.34 14.35.34 4.35 0 12.7 0 22.77-.81 9.29-.74 16.33-1.94 30.4-4.32 3.26-.55 11.14-1.91 21.25-4.02 13.59-2.83 19.69-5.08 24.32-6.95 4.23-1.71 7.65-3.38 10.03-4.63 1.52 1.53 2.9 2.8 4.04 3.8 2.56 2.24 3.89 3.09 3.84 4.39-.03.73-.48 1.57-1.83 2.51-23.13 16.2-65.08 25.4-65.08 25.4-11.81 2.59-17.72 3.89-19.8 4.27-33.35 6.14-47.53 3.51-52.4 2.45Z"/><path class="cls-4" d="M86.1 343.5c-.57.49-1.48 1.27-2.64 2.19-2.04 1.62-3.01 2.22-4.77 3.61-.85.67-2.1 1.69-3.58 3.05-.81-.52-1.91-1.28-3.14-2.27-1.88-1.52-2.82-2.28-2.88-2.95-.13-1.33 2.15-2.84 6.74-5.79 1.84-1.18 2.42-1.48 2.83-1.59.08-.02.15-.03.23-.05 1.3-.22 2.4.5 3.68 1.36 1.54 1.04 2.72 1.87 3.52 2.44Zm.49-51.6c-1.03 11.19-.16 22.36.47 33.53-1.95-.93-4.97-2.74-6.98-6.07-2-3.32-1.43-5.54-1.55-16.52-.09-8.58-.51-13.66 1.25-14.21.51-.16 1.67 0 3.4 1.27 1.05.77 2.26 1.33 3.4 1.99Z"/><path class="cls-4" d="M39.41 148.11c.45-.04.94.31 1.2.8.37.69.72 1.44.86 2.2 1 5.53 4.45 8.44 9.83 9.35 1.35.23 3 .43 3.12 2.09.14 1.87-1.61 2.25-3.02 2.67-5.07 1.53-8.65 4.38-9.43 9.99-.18 1.31-.63 2.87-2.35 2.94-1.95.08-1.95-1.74-2.18-2.94-1.03-5.37-4.55-8.1-9.49-9.57-1.22-.36-2.96-.65-2.87-2.4.08-1.46 1.63-1.86 2.79-2.14 5.47-1.36 8.53-4.77 9.5-10.3.31-1.8 1.14-2.57 2.03-2.69Z" style="clip-path:url(#clippath)" id="_Gespiegelt_wiederholen_" data-name="&amp;lt;Gespiegelt wiederholen&amp;gt;"/><path class="cls-4" d="M39.49 148.11c-.45-.04-.94.31-1.2.8-.37.69-.72 1.44-.86 2.2-1 5.53-4.45 8.44-9.83 9.35-1.35.23-3 .43-3.12 2.09-.14 1.87 1.61 2.25 3.02 2.67 5.07 1.53 8.65 4.38 9.43 9.99.18 1.31.63 2.87 2.35 2.94 1.95.08 1.95-1.74 2.18-2.94 1.03-5.37 4.55-8.1 9.49-9.57 1.22-.36 2.96-.65 2.87-2.4-.08-1.46-1.63-1.86-2.79-2.14-5.47-1.36-8.53-4.77-9.5-10.3-.31-1.8-1.14-2.57-2.03-2.69Z" style="clip-path:url(#clippath-1)" id="_Gespiegelt_wiederholen_-2" data-name="&amp;lt;Gespiegelt wiederholen&amp;gt;"/><path class="cls-4" d="M266.07 41.61c.28-.02.58.19.74.49.23.43.45.89.53 1.36.62 3.42 2.76 5.22 6.08 5.79.84.14 1.86.27 1.93 1.29.09 1.16-1 1.39-1.87 1.66-3.14.94-5.35 2.71-5.84 6.18-.11.81-.39 1.77-1.46 1.82-1.21.05-1.21-1.08-1.35-1.82-.64-3.32-2.82-5.01-5.87-5.92-.75-.22-1.83-.41-1.77-1.49.05-.9 1.01-1.15 1.72-1.33 3.38-.84 5.28-2.95 5.88-6.37.19-1.11.7-1.59 1.26-1.66Z" style="clip-path:url(#clippath-2)" id="_Gespiegelt_wiederholen_-3" data-name="&amp;lt;Gespiegelt wiederholen&amp;gt;"/><path class="cls-4" d="M266.12 41.61c-.28-.02-.58.19-.74.49-.23.43-.45.89-.53 1.36-.62 3.42-2.76 5.22-6.08 5.79-.84.14-1.86.27-1.93 1.29-.09 1.16 1 1.39 1.87 1.66 3.14.94 5.35 2.71 5.84 6.18.11.81.39 1.77 1.46 1.82 1.21.05 1.21-1.08 1.35-1.82.64-3.32 2.82-5.01 5.87-5.92.75-.22 1.83-.41 1.77-1.49-.05-.9-1.01-1.15-1.72-1.33-3.38-.84-5.28-2.95-5.88-6.37-.19-1.11-.7-1.59-1.26-1.66Z" style="clip-path:url(#clippath-3)" id="_Gespiegelt_wiederholen_-4" data-name="&amp;lt;Gespiegelt wiederholen&amp;gt;"/><path class="cls-4" d="M351.57 169.52c.45-.04.94.31 1.2.8.37.69.72 1.44.86 2.2 1 5.53 4.45 8.44 9.83 9.35 1.35.23 3 .43 3.12 2.09.14 1.87-1.61 2.25-3.02 2.67-5.07 1.53-8.65 4.38-9.43 9.99-.18 1.31-.63 2.87-2.35 2.94-1.95.08-1.95-1.74-2.18-2.94-1.03-5.37-4.55-8.1-9.49-9.57-1.22-.36-2.96-.65-2.87-2.4.08-1.46 1.63-1.86 2.79-2.14 5.47-1.36 8.53-4.77 9.5-10.3.31-1.8 1.14-2.57 2.03-2.69Z" style="clip-path:url(#clippath-4)" id="_Gespiegelt_wiederholen_-5" data-name="&amp;lt;Gespiegelt wiederholen&amp;gt;"/><path class="cls-4" d="M351.65 169.52c-.45-.04-.94.31-1.2.8-.37.69-.72 1.44-.86 2.2-1 5.53-4.45 8.44-9.83 9.35-1.35.23-3 .43-3.12 2.09-.14 1.87 1.61 2.25 3.02 2.67 5.07 1.53 8.65 4.38 9.43 9.99.18 1.31.63 2.87 2.35 2.94 1.95.08 1.95-1.74 2.18-2.94 1.03-5.37 4.55-8.1 9.49-9.57 1.22-.36 2.96-.65 2.87-2.4-.08-1.46-1.63-1.86-2.79-2.14-5.47-1.36-8.53-4.77-9.5-10.3-.31-1.8-1.14-2.57-2.03-2.69Z" style="clip-path:url(#clippath-5)" id="_Gespiegelt_wiederholen_-6" data-name="&amp;lt;Gespiegelt wiederholen&amp;gt;"/><path class="cls-4" d="M176.17 24.97c.45-.04.94.31 1.2.8.37.69.72 1.44.86 2.2 1 5.53 4.45 8.44 9.83 9.35 1.35.23 3 .43 3.12 2.09.14 1.87-1.61 2.25-3.02 2.67-5.07 1.53-8.65 4.38-9.43 9.99-.18 1.31-.63 2.87-2.35 2.94-1.95.08-1.95-1.74-2.18-2.94-1.03-5.37-4.55-8.1-9.49-9.57-1.22-.36-2.96-.65-2.87-2.4.08-1.46 1.63-1.86 2.79-2.14 5.47-1.36 8.53-4.77 9.5-10.3.31-1.8 1.14-2.57 2.03-2.69Z" style="clip-path:url(#clippath-6)" id="_Gespiegelt_wiederholen_-7" data-name="&amp;lt;Gespiegelt wiederholen&amp;gt;"/><path class="cls-4" d="M176.25 24.97c-.45-.04-.94.31-1.2.8-.37.69-.72 1.44-.86 2.2-1 5.53-4.45 8.44-9.83 9.35-1.35.23-3 .43-3.12 2.09-.14 1.87 1.61 2.25 3.02 2.67 5.07 1.53 8.65 4.38 9.43 9.99.18 1.31.63 2.87 2.35 2.94 1.95.08 1.95-1.74 2.18-2.94 1.03-5.37 4.55-8.1 9.49-9.57 1.22-.36 2.96-.65 2.87-2.4-.08-1.46-1.63-1.86-2.79-2.14-5.47-1.36-8.53-4.77-9.5-10.3-.31-1.8-1.14-2.57-2.03-2.69Z" style="clip-path:url(#clippath-7)" id="_Gespiegelt_wiederholen_-8" data-name="&amp;lt;Gespiegelt wiederholen&amp;gt;"/><path class="cls-4" d="M360.18 284.13c.45-.04.94.31 1.2.8.37.69.72 1.44.86 2.2 1 5.53 4.45 8.44 9.83 9.35 1.35.23 3 .43 3.12 2.09.14 1.87-1.61 2.25-3.02 2.67-5.07 1.53-8.65 4.38-9.43 9.99-.18 1.31-.63 2.87-2.35 2.94-1.95.08-1.95-1.74-2.18-2.94-1.03-5.37-4.55-8.1-9.49-9.57-1.22-.36-2.96-.65-2.87-2.4.08-1.46 1.63-1.86 2.79-2.14 5.47-1.36 8.53-4.77 9.5-10.3.31-1.8 1.14-2.57 2.03-2.69Z" style="clip-path:url(#clippath-8)" id="_Gespiegelt_wiederholen_-9" data-name="&amp;lt;Gespiegelt wiederholen&amp;gt;"/><path class="cls-4" d="M360.25 284.13c-.45-.04-.94.31-1.2.8-.37.69-.72 1.44-.86 2.2-1 5.53-4.45 8.44-9.83 9.35-1.35.23-3 .43-3.12 2.09-.14 1.87 1.61 2.25 3.02 2.67 5.07 1.53 8.65 4.38 9.43 9.99.18 1.31.63 2.87 2.35 2.94 1.95.08 1.95-1.74 2.18-2.94 1.03-5.37 4.55-8.1 9.49-9.57 1.22-.36 2.96-.65 2.87-2.4-.08-1.46-1.63-1.86-2.79-2.14-5.47-1.36-8.53-4.77-9.5-10.3-.31-1.8-1.14-2.57-2.03-2.69Z" style="clip-path:url(#clippath-9)" id="_Gespiegelt_wiederholen_-10" data-name="&amp;lt;Gespiegelt wiederholen&amp;gt;"/><path class="cls-4" d="M47.8 268.95c.28-.02.58.19.74.49.23.43.45.89.53 1.36.62 3.42 2.76 5.22 6.08 5.79.84.14 1.86.27 1.93 1.29.09 1.16-1 1.39-1.87 1.66-3.14.94-5.35 2.71-5.84 6.18-.11.81-.39 1.77-1.46 1.82-1.21.05-1.21-1.08-1.35-1.82-.64-3.32-2.82-5.01-5.87-5.92-.75-.22-1.83-.41-1.77-1.49.05-.9 1.01-1.15 1.72-1.33 3.38-.84 5.28-2.95 5.88-6.37.19-1.11.7-1.59 1.26-1.66Z" style="clip-path:url(#clippath-10)" id="_Gespiegelt_wiederholen_-11" data-name="&amp;lt;Gespiegelt wiederholen&amp;gt;"/><path class="cls-4" d="M47.85 268.95c-.28-.02-.58.19-.74.49-.23.43-.45.89-.53 1.36-.62 3.42-2.76 5.22-6.08 5.79-.84.14-1.86.27-1.93 1.29-.09 1.16 1 1.39 1.87 1.66 3.14.94 5.35 2.71 5.84 6.18.11.81.39 1.77 1.46 1.82 1.21.05 1.21-1.08 1.35-1.82.64-3.32 2.82-5.01 5.87-5.92.75-.22 1.83-.41 1.77-1.49-.05-.9-1.01-1.15-1.72-1.33-3.38-.84-5.28-2.95-5.88-6.37-.19-1.11-.7-1.59-1.26-1.66Z" style="clip-path:url(#clippath-11)" id="_Gespiegelt_wiederholen_-12" data-name="&amp;lt;Gespiegelt wiederholen&amp;gt;"/><path class="cls-4" d="M372.4 146.19c.28-.02.58.19.74.49.23.43.45.89.53 1.36.62 3.42 2.76 5.22 6.08 5.79.84.14 1.86.27 1.93 1.29.09 1.16-1 1.39-1.87 1.66-3.14.94-5.35 2.71-5.84 6.18-.11.81-.39 1.77-1.46 1.82-1.21.05-1.21-1.08-1.35-1.82-.64-3.32-2.82-5.01-5.87-5.92-.75-.22-1.83-.41-1.77-1.49.05-.9 1.01-1.15 1.72-1.33 3.38-.84 5.28-2.95 5.88-6.37.19-1.11.7-1.59 1.26-1.66Z" style="clip-path:url(#clippath-12)" id="_Gespiegelt_wiederholen_-13" data-name="&amp;lt;Gespiegelt wiederholen&amp;gt;"/><path class="cls-4" d="M372.45 146.19c-.28-.02-.58.19-.74.49-.23.43-.45.89-.53 1.36-.62 3.42-2.76 5.22-6.08 5.79-.84.14-1.86.27-1.93 1.29-.09 1.16 1 1.39 1.87 1.66 3.14.94 5.35 2.71 5.84 6.18.11.81.39 1.77 1.46 1.82 1.21.05 1.21-1.08 1.35-1.82.64-3.32 2.82-5.01 5.87-5.92.75-.22 1.83-.41 1.77-1.49-.05-.9-1.01-1.15-1.72-1.33-3.38-.84-5.28-2.95-5.88-6.37-.19-1.11-.7-1.59-1.26-1.66Z" style="clip-path:url(#clippath-13)" id="_Gespiegelt_wiederholen_-14" data-name="&amp;lt;Gespiegelt wiederholen&amp;gt;"/></svg>